<?xml version="1.0" encoding="UTF-8" standalone="no"?>
<!-- Created with Inkscape (http://www.inkscape.org/) -->

<svg
   width="197.33916mm"
   height="199.13213mm"
   viewBox="0 0 197.33916 199.13213"
   version="1.1"
   id="svg1"
   xmlns="http://www.w3.org/2000/svg"
   xmlns:svg="http://www.w3.org/2000/svg">
  <defs
     id="defs1" />
  <ellipse
     style="fill:#c6ffc6;stroke:#000000;stroke-width:0"
     id="path1"
     cx="98.592873"
     cy="99.614586"
     rx="96.235428"
     ry="97.531197" />
  <path
     style="fill:#000000;stroke-width:1"
     d="M 38.973666,165.01779 24.870833,154.19274 V 101.41101 48.629299 H 39.15525 53.439658 v 63.607881 c 0,34.98433 -0.08171,63.60738 -0.181574,63.60677 -0.09987,-6.1e-4 -6.527858,-4.87238 -14.284418,-10.82616 z M 57.55551,158.8978 v -16.94725 l 11.379112,-13.87192 c 6.258511,-7.62955 11.379104,-13.91969 11.379104,-13.97812 0,-0.0584 -5.120593,-0.1062 -11.379104,-0.1062 H 57.55551 v -7.73135 -7.731352 h 56.29027 c 30.95966,0 56.29028,0.0611 56.29028,0.13574 0,0.0747 -2.80544,3.553032 -6.2343,7.729692 l -6.2343,7.59394 -20.46452,0.002 -20.46451,0.002 -16.37675,19.97264 -16.37672,19.97264 28.06481,0.0595 28.06481,0.0596 v 10.89319 10.8932 H 98.835039 57.55551 Z m 86.67491,6.0894 v -10.93047 h 14.18029 14.18029 l -4.33373,3.33853 c -2.38355,1.83619 -8.57402,6.59617 -13.7566,10.57773 -5.18258,3.98156 -9.61353,7.39793 -9.84656,7.59195 -0.40267,0.33524 -0.42369,-0.18957 -0.42369,-10.57774 z M 96.931039,94.021661 c 0.100373,-0.16107 5.554241,-6.846467 12.119721,-14.856438 6.56548,-8.009968 11.93723,-14.625546 11.93723,-14.701263 0,-0.07571 -14.27231,-0.137684 -31.716236,-0.137684 H 57.55551 v -7.848493 -7.848484 h 56.31045 c 33.12384,0 56.27722,0.08651 56.22975,0.210134 -0.0444,0.115572 -8.4153,10.387428 -18.60202,22.826345 l -18.52132,22.616203 -18.11191,0.0163 c -14.42899,0.0129 -18.074814,-0.0433 -17.929421,-0.27658 z M 36.657777,36.638666 c 5.568138,-4.27545 11.649183,-8.946461 13.513418,-10.380044 l 3.389516,-2.606507 -0.06543,10.380044 -0.06543,10.380044 H 39.981876 26.533893 Z M 57.55551,34.10375 V 23.795297 l 47.39278,0.0089 47.39277,0.0089 7.32317,8.952642 c 4.02774,4.923957 7.82255,9.558858 8.4329,10.299775 l 1.10973,1.347133 H 113.38118 57.55551 Z"
     id="path1-5" />
</svg>
