<?xml version="1.0" encoding="UTF-8" standalone="no"?>
<!-- Created with Inkscape (http://www.inkscape.org/) -->

<svg
   width="161.43283mm"
   height="171.87654mm"
   viewBox="0 0 161.43283 171.87654"
   version="1.1"
   id="svg1"
   xmlns="http://www.w3.org/2000/svg"
   xmlns:svg="http://www.w3.org/2000/svg">
  <defs
     id="defs1" />
  <g
     id="layer1"
     transform="translate(-2.11667,-99.483333)">
    <g
       id="layer1-5"
       transform="translate(-112.18333,38.629166)">
      <path
         style="fill:#000000"
         d="M 129.71198,220.50289 114.3,208.27782 V 148.66976 89.061703 h 15.61042 15.61041 v 71.834377 c 0,39.50891 -0.0893,71.83382 -0.19843,71.83313 -0.10914,-6.9e-4 -7.13383,-5.50253 -15.61042,-12.22632 z m 20.30677,-6.9115 v -19.13907 l 12.43542,-15.66599 c 6.83948,-8.61629 12.43541,-15.71995 12.43541,-15.78593 0,-0.066 -5.59593,-0.11994 -12.43541,-0.11994 h -12.43542 v -8.73125 -8.73125 h 61.51562 c 33.8336,0 61.51563,0.069 61.51563,0.1533 0,0.0843 -3.06586,4.01253 -6.81302,8.72937 l -6.81302,8.57607 -22.36421,0.002 -22.36421,0.002 -17.89697,22.55573 -17.89696,22.55573 30.67003,0.0672 30.67003,0.0673 v 12.30202 12.30203 h -45.11146 -45.11146 z m 94.72083,6.87695 v -12.34413 h 15.49662 15.49663 l -4.73602,3.77031 c -2.60482,2.07367 -9.36994,7.44927 -15.03361,11.94577 -5.66367,4.4965 -10.50594,8.35471 -10.7606,8.57382 -0.44005,0.3786 -0.46302,-0.21408 -0.46302,-11.94577 z m -51.69012,-80.14361 c 0.10969,-0.1819 6.06984,-7.73193 13.24478,-16.77785 7.17494,-9.04591 13.04534,-16.51709 13.04534,-16.6026 0,-0.0855 -15.59719,-0.15549 -34.66041,-0.15549 h -34.66042 v -8.863545 -8.863542 h 61.53767 c 36.19869,0 61.50136,0.09771 61.44948,0.237307 -0.0485,0.130518 -9.19647,11.73085 -20.32882,25.77851 l -20.24062,25.5412 -19.79322,0.0184 c -15.76841,0.0146 -19.75267,-0.0489 -19.59378,-0.31236 z M 127.18111,75.520297 c 6.08502,-4.828398 12.73056,-10.103531 14.76785,-11.722518 l 3.70416,-2.943612 -0.0715,11.722518 -0.0715,11.722518 h -14.69634 -14.69634 z m 22.83764,-2.86276 V 61.01587 l 51.79219,0.0098 51.79218,0.0098 8.00297,10.110509 c 4.40163,5.560781 8.5487,10.795119 9.21571,11.631864 l 1.21274,1.521354 h -61.0079 -61.00789 z"
         id="path1" />
    </g>
    <path
       style="fill:#f9f9f9;stroke:#000000;stroke-width:0"
       d="m 173.38623,246.60965 v -72.86026 l 107.85006,0.13176 c 59.31754,0.0725 109.60666,0.19477 111.75362,0.27178 l 3.90354,0.14003 -3.91041,5.03737 c -9.57857,12.3391 -19.82144,25.32457 -57.61493,73.04184 -32.84666,41.4715 -37.93042,47.96704 -37.71229,48.18517 0.83454,0.83454 12.10245,0.97146 80.29795,0.97569 l 62.21151,0.004 v 8.96652 8.96651 H 306.77575 173.38623 Z"
       id="path2"
       transform="matrix(0.26458333,0,0,0.26458333,2.11667,99.483333)" />
  </g>
</svg>
