<?xml version="1.0" encoding="UTF-8" standalone="no"?>
<!-- Created with Inkscape (http://www.inkscape.org/) -->

<svg
   width="197.33914mm"
   height="199.13213mm"
   viewBox="0 0 197.33914 199.13213"
   version="1.1"
   id="svg1"
   xmlns="http://www.w3.org/2000/svg"
   xmlns:svg="http://www.w3.org/2000/svg">
  <defs
     id="defs1" />
  <g
     id="layer1"
     transform="translate(-3.8823903,-6.520534)">
    <rect
       style="fill:#c6ffc6;fill-opacity:1;stroke:#000000;stroke-width:0"
       id="rect1"
       width="197.33916"
       height="199.13213"
       x="3.8823903"
       y="6.520534" />
    <path
       style="fill:#000000"
       d="M 38.153734,180.58371 22.741754,168.35864 V 108.75058 49.142518 h 15.61042 15.61041 V 120.9769 c 0,39.50891 -0.0893,71.83382 -0.19843,71.83313 -0.10914,-6.9e-4 -7.13383,-5.50253 -15.61042,-12.22632 z m 20.30677,-6.9115 v -19.13907 l 12.43542,-15.66599 c 6.83948,-8.61629 12.43541,-15.71995 12.43541,-15.78593 0,-0.066 -5.59593,-0.11994 -12.43541,-0.11994 h -12.43542 v -8.73125 -8.73125 h 61.515616 c 33.8336,0 61.51563,0.069 61.51563,0.1533 0,0.0843 -3.06586,4.01253 -6.81302,8.72937 l -6.81302,8.57607 -22.36421,0.002 -22.36421,0.002 -17.89697,22.55573 -17.896956,22.55573 30.670026,0.0672 30.67003,0.0673 v 12.30202 12.30203 H 103.57196 58.460504 Z m 94.720826,6.87695 v -12.34413 h 15.49662 15.49663 l -4.73602,3.77031 c -2.60482,2.07367 -9.36994,7.44927 -15.03361,11.94577 -5.66367,4.4965 -10.50594,8.35471 -10.7606,8.57382 -0.44005,0.3786 -0.46302,-0.21408 -0.46302,-11.94577 z m -51.69012,-80.14361 c 0.10969,-0.1819 6.06984,-7.731932 13.24478,-16.777852 7.17494,-9.04591 13.04534,-16.51709 13.04534,-16.6026 0,-0.0855 -15.59719,-0.15549 -34.660406,-0.15549 h -34.66042 v -8.86355 -8.86354 h 61.537666 c 36.19869,0 61.50136,0.0977 61.44948,0.23731 -0.0485,0.13052 -9.19647,11.73085 -20.32882,25.77851 l -20.24062,25.541202 -19.79322,0.0184 c -15.76841,0.0146 -19.75267,-0.0489 -19.59378,-0.31236 z M 35.622864,35.601118 c 6.08502,-4.8284 12.73056,-10.10352 14.76785,-11.72251 l 3.70416,-2.94361 -0.0715,11.72251 -0.0715,11.72251 h -14.69634 -14.69634 z m 22.83764,-2.86276 v -11.64166 l 51.792186,0.01 51.79218,0.01 8.00297,10.1105 c 4.40163,5.56078 8.5487,10.79512 9.21571,11.63186 l 1.21274,1.52136 h -61.0079 -61.007886 z"
       id="path1" />
  </g>
</svg>
