<?xml version="1.0" encoding="UTF-8" standalone="no"?>
<!-- Created with Inkscape (http://www.inkscape.org/) -->

<svg
   version="1.1"
   id="svg2"
   width="401.83289"
   height="445.70221"
   viewBox="0 0 401.83289 445.70221"
   xmlns="http://www.w3.org/2000/svg"
   xmlns:svg="http://www.w3.org/2000/svg">
  <defs
     id="defs6" />
  <g
     id="g8"
     transform="translate(-84.959999,-153.82623)">
    <path
       style="fill:#000000"
       d="M 160.69526,598.98828 C 135.7765,596.53712 111.05631,580.79013 94.992384,557.13495 90.679069,550.78332 84.961362,539.49946 84.959997,537.3361 c -5.36e-4,-0.84858 1.765457,-1.25 5.499211,-1.25 h 5.5 l 0.0059,-12.25 c 0.0056,-11.73008 1.786889,-27.39025 3.945606,-34.68862 0.816366,-2.76003 0.704086,-3.78447 -0.568923,-5.19113 -1.463526,-1.61718 -1.249951,-2.34406 2.765709,-9.41281 5.41703,-9.53557 13.72033,-19.71321 18.62601,-22.83053 8.30077,-5.27473 10.12074,-9.78304 10.18181,-25.22192 0.048,-12.13714 1.01981,-14.40499 6.17263,-14.40499 4.31215,0 4.87019,1.59306 4.88658,13.95 0.008,6.3525 0.39955,12.15629 0.86916,12.89732 0.69375,1.0947 2.17988,1.14158 7.92624,0.25 11.10321,-1.72272 10.18928,-2.60749 10.18928,9.86414 v 10.96145 l -4.25,1.09807 c -7.33502,1.89513 -8.1291,2.17802 -13.25,4.72021 -25.38918,12.60409 -37.19552,42.23473 -27.88899,69.99364 5.69678,16.99198 23.47243,32.64951 41.25803,36.34178 3.20524,0.66541 10.00541,0.96876 15.86971,0.70795 l 10.26125,-0.45637 v 9.1995 9.1995 l 6.5,-1.55523 6.5,-1.55523 v -8.64785 c 0,-8.45814 -0.0603,-8.67583 -2.75,-9.92333 -2.57726,-1.19537 -2.63188,-1.34678 -0.86952,-2.41052 10.98179,-6.62843 19.36095,-15.25741 24.34988,-25.07584 2.88076,-5.66946 5.23986,-13.66024 5.25777,-17.80919 0.0109,-2.51883 -0.32438,-2.76261 -3.98813,-2.9 -2.2,-0.0825 -4.51652,-0.195 -5.14782,-0.25 -0.63131,-0.055 -1.88921,2.6 -2.79535,5.9 -4.46037,16.24385 -17.10366,28.96386 -32.26542,32.46121 -11.73873,2.70776 -25.77735,-0.096 -34.93538,-6.97721 -6.66807,-5.01029 -10.71619,-10.10265 -14.43645,-18.16044 -2.69027,-5.8269 -2.91958,-7.22679 -2.91958,-17.82356 0,-11.248 0.0818,-11.66724 3.73094,-19.13224 4.35984,-8.91875 11.59818,-16.16585 20.5214,-20.54625 5.33571,-2.61928 6.60774,-2.82151 17.74766,-2.82151 11.48418,0 12.28257,0.13828 18.57366,3.21692 11.73716,5.74377 21.98863,19.54694 23.76466,31.99812 l 0.68252,4.78496 10.02043,0.28256 10.02043,0.28257 -0.3235,7.21743 c -0.17792,3.96959 -1.03653,10.36744 -1.90802,14.21744 -0.87148,3.85 -1.63979,7.34673 -1.70735,7.77052 -0.12315,0.7725 113.3446,1.09538 114.11526,0.32473 0.22548,-0.22548 -0.40397,-2.70166 -1.39878,-5.50261 l -1.80875,-5.09264 h -12.24623 -12.24623 l -0.76905,-2.75 c -0.42298,-1.5125 -0.76325,-9.95 -0.75617,-18.75 0.012,-14.89779 0.86437,-22.10164 3.40613,-28.78697 l 1.03149,-2.71303 h 14.91989 14.91989 l -1.85571,5.96241 c -1.02064,3.27932 -2.12565,8.34182 -2.45557,11.25 -0.32993,2.90817 -0.80228,6.2843 -1.04967,7.50249 -0.43822,2.15782 -0.18536,2.22226 9.81043,2.5 l 10.26024,0.2851 -0.31267,2.68208 c -0.63051,5.40863 1.89298,18.3878 4.77146,24.54125 5.3628,11.46427 16.38861,20.41946 29.4096,23.88654 6.58479,1.75333 18.68701,1.75103 25.28142,-0.005 17.74276,-4.72419 32.04455,-20.71988 35.42166,-39.617 2.55042,-14.27127 -2.91348,-30.83008 -13.74806,-41.66466 -7.21272,-7.21272 -13.24504,-10.83336 -21.77824,-13.07145 l -6.54517,-1.71646 v -13.26765 c 0,-15.34254 -1.02341,-14.32268 11.72922,-11.68855 8.97612,1.85407 19.16967,5.75237 22.95203,8.77751 1.47394,1.17886 5.18614,3.49339 8.24932,5.14339 4.59529,2.47528 6.46936,4.37311 10.71457,10.85045 2.82983,4.31775 6.75999,9.5042 8.73369,11.52546 3.149,3.22487 3.77301,4.73284 5.09465,12.31164 0.82835,4.75016 2.63569,11.76815 4.01631,15.59553 3.00829,8.33968 3.0658,11.00784 0.48857,22.66626 -1.0881,4.92214 -1.97836,11.13923 -1.97836,13.81574 0,5.18524 -0.91678,7.57523 -4.60849,12.01401 -1.27124,1.5285 -4.85996,7.28031 -7.97493,12.7818 -3.11497,5.50149 -6.94644,11.21352 -8.51437,12.69339 -1.56793,1.47988 -7.92486,5.45601 -14.1265,8.83585 -6.20164,3.37984 -13.97571,7.66722 -17.27571,9.52752 l -6,3.38235 h -20 -20 l -6.5,-3.36791 c -3.575,-1.85234 -9.31614,-5.36518 -12.7581,-7.8063 -3.44195,-2.44112 -8.43081,-5.08363 -11.08635,-5.87224 -7.38754,-2.19386 -12.66885,-6.64013 -18.0939,-15.23302 -2.68086,-4.24629 -5.61245,-8.73303 -6.51465,-9.97053 l -1.64037,-2.25 h -45.23403 -45.23403 l -3.58968,7.25 c -4.62708,9.34523 -10.21873,16.35181 -18.61575,23.32636 -15.63478,12.9862 -31.86908,17.55165 -54.49709,15.32582 z M 155.7367,588.5294 c 4.37338,-3.06324 2.08875,-7.14611 -5.27749,-9.4314 -11.18769,-3.47085 -23.76412,-11.92338 -31.88643,-21.43064 -4.75584,-5.56677 -4.85076,-5.61858 -9.45881,-5.16248 -2.56012,0.2534 -5.00382,0.48784 -5.43044,0.52097 -1.65104,0.12824 2.85691,6.83951 8.67832,12.91995 9.19242,9.60145 22.19218,18.13537 34.58667,22.70504 4.7091,1.73617 6.16478,1.71606 8.78818,-0.12144 z m 242.22251,-47.37843 c -9.32028,-2.84537 -17.66919,-10.67719 -20.67485,-19.39435 -8.48219,-24.60043 12.67846,-48.49153 37.8078,-42.6863 30.99595,7.16051 34.43026,49.87464 4.91182,61.09077 -5.24579,1.99324 -17.02555,2.52219 -22.04477,0.98988 z m -156,-16.93604 v -8.87117 l 4.95988,-0.65795 c 2.72794,-0.36187 6.10294,-0.37106 7.5,-0.0204 2.48191,0.62292 2.54012,0.84129 2.54012,9.52912 v 8.89159 h -7.5 -7.5 v -8.87117 z m 26.42364,7.53278 c -0.28247,-0.73612 -0.38085,-4.89862 -0.21861,-9.25 l 0.29497,-7.91161 10.25,-0.28498 10.25,-0.28499 V 496.55112 479.0861 h -5.36916 -5.36916 l -0.61983,3.75 c -0.34091,2.0625 -0.62479,6.7875 -0.63084,10.5 l -0.011,6.75 -21.25,-0.0136 c -11.6875,-0.008 -22.21751,-0.27323 -23.40003,-0.59049 -1.61609,-0.43359 -2.30614,-1.61789 -2.77866,-4.76892 -0.34576,-2.30565 -1.51575,-5.65081 -2.59998,-7.43368 -1.08423,-1.78293 -1.97133,-3.83117 -1.97133,-4.5517 0,-1.78361 7.07433,-11.80149 13.63839,-19.31317 l 5.39301,-6.17157 28.9843,-0.11076 28.9843,-0.11076 v 38.03233 38.03232 h -16.53138 c -12.8849,0 -16.64468,-0.29522 -17.04498,-1.33839 z m -65.17666,-61.59739 c -6.95819,-5.09551 -12.95703,-7.82832 -21.33943,-9.7213 -5.74028,-1.29632 -6.90755,-1.90023 -6.90755,-3.57374 0,-1.89901 0.49885,-1.98836 8.75,-1.56733 7.37286,0.37622 9.7496,0.95663 15.10119,3.68779 3.49316,1.78272 6.59773,2.99477 6.89906,2.69345 0.30132,-0.30133 0.75957,-3.84665 1.01831,-7.87849 l 0.47045,-7.33062 -6.3695,-4.76458 c -5.53073,-4.13715 -6.85451,-4.70224 -10.05249,-4.29114 -4.26216,0.5479 -4.81702,-0.24521 -4.81702,-6.88536 0,-4.30587 0.47157,-4.94166 21.26323,-28.66821 30.37396,-34.66145 29.38496,-33.36344 30.05531,-39.4463 1.05015,-9.52925 7.59779,-18.87972 16.35169,-23.3513 4.07644,-2.08228 6.23357,-2.46709 13.82977,-2.46709 8.09523,0 9.53518,0.29646 14.32355,2.94896 5.98213,3.31378 10.21619,8.12597 13.31655,15.13484 1.71548,3.87814 2.01531,6.12595 1.6446,12.3295 -0.52399,8.76863 -2.81419,14.05236 -8.52631,19.67105 -12.30042,12.09924 -32.43642,11.81604 -43.66633,-0.61413 -1.97277,-2.18362 -4.00526,-3.97022 -4.51665,-3.97022 -0.51139,0 -2.20006,1.51376 -3.75261,3.36391 -1.55254,1.85014 -8.3353,9.49717 -15.0728,16.99339 -6.7375,7.49622 -12.25,14.15629 -12.25,14.80016 0,0.64387 5.625,6.85561 12.5,13.80387 6.875,6.94826 12.5,13.02104 12.5,13.49507 0,2.22818 -22.54782,29.56685 -24.32967,29.49911 -0.64368,-0.0245 -3.53419,-1.77555 -6.42335,-3.89129 z m 119.41969,-5.73089 c -0.36667,-0.36666 -0.66667,-2.16666 -0.66667,-4 v -3.33333 h 22.5 22.5 v 4 4 h -21.83333 c -12.00834,0 -22.13334,-0.3 -22.5,-0.66667 z m 60.33333,-19.65114 v -4.54039 l 5.56103,-1.15447 c 7.30604,-1.51673 8.09955,-1.11699 7.62663,3.84204 -0.4152,4.35385 -0.0509,4.13197 -9.43766,5.74772 l -3.75,0.64549 z m -23,-58.06087 v -54.37868 l -3.15743,-1.30785 c -1.73659,-0.71932 -6.42498,-3.44093 -10.41864,-6.04802 l -7.26122,-4.74017 -20.93017,-0.3233 c -21.95658,-0.33915 -24.23254,-0.80367 -24.23254,-4.94574 0,-1.80292 1.47098,-1.87756 37,-1.87756 h 37 v 64 64 h -4 -4 z m 21.39883,37.83162 c -0.32345,-1.28875 -0.0955,-4.64002 0.50654,-7.44728 0.60204,-2.80726 1.09463,-9.12023 1.09463,-14.02884 v -8.92473 l 15.25,-0.27604 15.25,-0.27605 0.30479,-4.75 0.30479,-4.75 -13.30479,-0.0136 c -16.91037,-0.0174 -17.80479,-0.24864 -17.80479,-4.60303 v -3.38337 h 23 23 v 9 9 h 5.5 5.5 v 9 9 h -23.95228 -23.95229 l -0.29771,6.18844 -0.29772,6.18844 -4.75653,1.20962 c -4.6095,1.17222 -4.77472,1.13718 -5.34464,-1.13356 z M 147.45921,393.18625 c -8.20805,-3.80838 -13.5,-12.01911 -13.5,-20.94591 0,-19.19979 21.82406,-29.54306 37.34939,-17.70132 4.68547,3.57379 8.65347,11.60701 8.64084,17.49342 -0.0112,5.20591 -3.50333,13.43119 -7.10788,16.74159 -6.51207,5.98064 -17.78035,7.93941 -25.38235,4.41222 z m 288.5,-22.56262 v -5.53753 l -3.25,-0.0815 c -1.7875,-0.0448 -13.7125,-0.0114 -26.5,0.0744 l -23.25,0.15594 v -9.57441 -9.5744 h 26.5 26.5 v 9.5 9.5 h 4.5 4.5 v -4.86043 c 0,-2.67323 0.28617,-6.94823 0.63592,-9.5 l 0.63593,-4.6396 h 4.39081 4.39081 l -0.27674,14.75 -0.27673,14.75 -9.25,0.28753 -9.25,0.28752 z M 201.25824,367.583 c -3.23265,-2.26424 -4.71747,-7.69898 -3.28734,-12.03232 1.43317,-4.34254 4.77551,-6.66458 9.59298,-6.66458 9.42086,0 13.68773,10.99851 6.90012,17.78612 -2.85232,2.85232 -9.75422,3.32833 -13.20576,0.91078 z M 169.4148,338.01424 c -0.36582,-0.59191 0.2371,-2.05538 1.33981,-3.25217 1.10272,-1.19678 2.16611,-3.07597 2.36309,-4.17597 0.26992,-1.50732 1.27986,-2.07645 4.09983,-2.31037 l 3.74168,-0.31036 v 4.59175 c 0,4.94899 -0.0852,5.02475 -6.68964,5.94777 -2.53816,0.35473 -4.45183,0.16132 -4.85477,-0.49065 z m 213.54776,-15.5314 0.003,-8.89674 9.1007,-1.76696 c 15.17809,-2.94693 26.78436,-8.8929 37.98719,-19.46109 11.78235,-11.11487 19.3888,-24.86026 21.96803,-39.69781 1.477,-8.49669 0.70577,-26.13651 -1.44399,-33.02748 -0.84991,-2.72433 -1.4064,-5.09223 -1.23664,-5.26198 0.16975,-0.16976 2.06575,-0.41575 4.21333,-0.54666 l 3.90503,-0.23802 2.3494,7 c 3.55507,10.59226 4.13907,29.13157 1.27693,40.53701 -1.16805,4.65464 -3.45501,11.16299 -5.08211,14.46299 l -2.95837,6 3.76254,4 c 6.9654,7.405 7.1433,6.37477 -2.58714,14.98156 -21.18169,18.73569 -41.3399,28.28263 -63.71127,30.1737 l -7.54998,0.63821 0.003,-8.89673 z m -237.75268,-3.94188 c -8.90137,-2.39694 -21.56039,-9.87219 -27.68776,-16.34986 l -2.93709,-3.105 h 23.68709 23.68709 v 10.5 10.5 l -5.75,-0.0658 c -3.1625,-0.0362 -8.1122,-0.7019 -10.99933,-1.47933 z m 28.96435,-9.70486 0.28498,-10.25 14,-0.0934 c 21.74516,-0.14504 19.5,0.59259 19.5,-6.4066 v -6 h -3 c -3.15688,0 -3.00299,0.388 -2.99977,-7.5633 3.6e-4,-0.888 52.36848,-0.46799 53.26366,0.42719 0.44092,0.44092 0.53153,1.50565 0.20136,2.36607 -0.45237,1.17886 -2.49364,1.66235 -8.28278,1.96183 -6.7002,0.3466 -8.2898,0.81631 -12.43247,3.67366 -3.83992,2.64853 -4.75,3.83746 -4.75,6.2054 0,2.72618 0.26393,2.92915 3.80887,2.92915 2.09488,0 4.60481,0.58201 5.57763,1.29335 1.68252,1.23028 1.67288,1.41176 -0.19771,3.72183 -1.74246,2.15184 -2.81728,2.44344 -9.43547,2.55978 -4.10796,0.0722 -7.98486,0.45011 -8.61534,0.83976 -0.63048,0.38966 -9.19372,0.67541 -19.02943,0.63501 -9.83572,-0.0404 -18.60884,0.20502 -19.49583,0.54539 -1.25092,0.48002 -1.61272,2.05309 -1.61272,7.01187 v 6.39301 h -3.53498 -3.53499 z m 38.45165,9.58333 c -1.23613,-1.23613 -0.67878,-4.11471 0.91512,-4.72634 0.86998,-0.33385 7.16998,-0.60699 14,-0.60699 10.09578,0 12.41821,0.26717 12.41821,1.42857 0,3.71504 -2.79218,4.57143 -14.90476,4.57143 -6.46905,0 -12.06191,-0.3 -12.42857,-0.66667 z m 83.08333,-16.43733 c -0.9625,-0.54746 -1.75,-1.87302 -1.75,-2.94569 0,-1.87032 0.84077,-1.95031 20.5,-1.95031 16.74571,0 20.5,0.25228 20.5,1.37756 0,3.38538 -2.94012,4.00126 -20.3327,4.25921 -10.05813,0.14918 -17.89199,-0.15759 -18.9173,-0.74077 z m 12.59755,-15.64222 c -12.5842,-0.32492 -15.32683,-1.25945 -13.98192,-4.76421 0.50499,-1.316 3.13215,-1.49679 18.34903,-1.26274 15.75696,0.24237 17.7963,0.46399 18.08468,1.96533 0.39007,2.03077 -4.62444,4.90897 -7.99968,4.59162 -1.26481,-0.11892 -7.76826,-0.35742 -14.45211,-0.53 z m -205.33298,-7.87341 c -5.012184,-12.03981 -6.27372,-19.83867 -5.723089,-35.38037 0.36139,-10.20033 0.984232,-14.9116 2.548249,-19.2753 7.32793,-20.44536 24.1546,-37.41194 43.8983,-44.2633 11.46955,-3.9801 27.76372,-5.59613 38.51197,-3.81955 l 3.75,0.61983 v 6.48266 6.48266 l -3.25,-0.6164 c -8.85923,-1.68025 -20.43967,-1.77134 -27.06376,-0.21289 -18.82538,4.42907 -33.59027,18.29739 -38.29612,35.97068 -2.09529,7.8691 -1.77629,20.54708 0.70235,27.91316 2.59723,7.71849 9.74017,18.62583 14.84565,22.66944 3.34019,2.64548 4.65782,3.04901 9.95578,3.04901 h 6.1061 v -10 -10 h 20 20 v 14 14 l -31.75,-0.004 -31.75,-0.004 -0.29619,-5.20857 c -0.1629,-2.86472 -0.47817,-5.39056 -0.7006,-5.61299 -0.22243,-0.22243 -2.45165,-0.63517 -4.95381,-0.9172 l -4.5494,-0.51334 v 6.13005 6.13005 h -4.40668 -4.40669 z m 209.57478,-8.23581 c -1.2658,-2.0481 -3.58935,-19.08475 -3.58935,-26.31771 0,-8.97165 2.15515,-20.69009 5.04504,-27.43192 1.07523,-2.50841 1.95496,-4.99491 1.95496,-5.52555 0,-0.54811 -2.68111,-0.83623 -6.20768,-0.6671 l -6.20768,0.29772 -3.00315,9 c -2.85014,8.54147 -3.00514,9.85338 -3.04232,25.75 l -0.0392,16.75 h -27.75 -27.75 v -19.5 -19.5 h 10 10 v 10.5 10.5 h 6 c 4.09677,0 6.02175,-0.39651 6.06856,-1.25 0.0377,-0.6875 0.28234,-8.1125 0.54361,-16.5 l 0.47504,-15.25 h -23.65201 -23.65202 l 0.71094,2.75 c 1.38161,5.3442 2.09722,19.92849 1.69282,34.5 l -0.40935,14.75 h -12.38879 -12.3888 v -6.5 -6.5 h 6.39301 c 7.49227,0 7.6104,-0.15283 7.59944,-9.83179 -0.0182,-16.06391 -4.30214,-28.34621 -13.05374,-37.42584 l -4.79845,-4.97831 -0.32013,-8.38437 c -0.27234,-7.13259 -0.0827,-8.38401 1.27015,-8.38202 3.74174,0.006 14.53592,6.67341 21.25095,13.12742 l 7.15296,6.87491 h 32.58339 32.58338 l 3.26404,-4.54509 c 9.51595,-13.25073 24.2713,-25.58719 39.41517,-32.95372 13.54452,-6.58856 22.47497,-8.68436 39.40983,-9.24871 l 14.25,-0.47489 v 5.8822 5.8822 L 378.15544,165.249 c -16.22615,-0.44561 -22.49332,0.77961 -34.69623,6.78307 -7.83299,3.85359 -16.49939,9.57348 -16.50062,10.89054 -3.4e-4,0.36492 15.97466,0.52013 35.5,0.34491 l 35.50062,-0.31858 v 7.06858 7.06858 h 10.19904 10.19904 l 4.81766,5.13145 c 2.66799,2.84177 6.70658,8.94346 9.05096,13.67461 l 4.2333,8.54316 -0.002,12.57539 c -10e-4,7.8862 -0.49619,13.97371 -1.32755,16.32539 l -1.3257,3.75 h -14.35735 c -7.89654,0 -15.62415,-0.47515 -17.17245,-1.05589 -5.1894,-1.94644 -10.17748,-6.09795 -14.01132,-11.66143 l -3.80363,-5.51986 -0.31874,-22.38141 -0.31874,-22.38141 h -36.27075 -36.27074 l -1.16051,2.54705 c -1.83493,4.02722 -1.46785,4.45295 3.83948,4.45295 h 5 v 4.46379 4.46379 l 9.6493,0.28621 9.6493,0.28621 -2.65629,3.15266 c -6.02742,7.15375 -11.60758,23.66569 -11.60758,34.34734 0,2.475 0.6619,7.62456 1.47088,11.44346 1.30513,6.16101 1.30058,7.20339 -0.0404,9.25 -1.27045,1.93894 -2.37478,2.30654 -6.92924,2.30654 -2.97986,0 -5.65584,-0.38495 -5.94661,-0.85544 z m 132.24896,-65.37358 c -5.53075,-10.67613 -18.13751,-23.71644 -28.33831,-29.3129 -3.85,-2.11222 -7.34011,-4.31688 -7.7558,-4.89924 -0.41569,-0.58236 -0.64069,-4.65884 -0.5,-9.05884 0.25261,-7.90014 0.28701,-7.9958 2.7558,-7.66336 4.67503,0.62952 17.84767,6.93836 25.4267,12.17774 4.15486,2.87225 10.47035,8.31345 14.03441,12.09154 7.0329,7.45524 15.54876,19.46075 15.52255,21.8834 -0.0131,1.21328 -10.31957,9.35529 -15.67212,12.38086 -0.7696,0.43502 -2.69859,-2.24325 -5.47323,-7.5992 z"
       id="path170" />
  </g>
</svg>
